<?xml version="1.0" encoding="UTF-8"?>
<svg version="1.1" xmlns="http://www.w3.org/2000/svg" width="102" height="240">
<path d="M0 0 C4.29 0.33 8.58 0.66 13 1 C13 2.65 13 4.3 13 6 C14.32 5.67 15.64 5.34 17 5 C17.99 6.32 18.98 7.64 20 9 C19.505 6.03 19.505 6.03 19 3 C19.66 3 20.32 3 21 3 C21.495 3.99 21.495 3.99 22 5 C25.26291266 6.36587041 27.33449029 7.11546412 30.859375 6.50390625 C34 7 34 7 35.43286133 8.63574219 C36.91147287 10.98294343 38.25442115 13.36614998 39.5625 15.8125 C43.44340499 23.15084499 43.44340499 23.15084499 50 28 C50 28.99 50 29.98 50 31 C52.97 30.01 55.94 29.02 59 28 C60.39677886 33.58711543 58.33821548 36.20130777 55.765625 41.16015625 C54.1994804 43.67915432 53.03148368 45.13976936 50.6875 46.875 C47.81258577 48.76584586 47.81258577 48.76584586 47 51.75 C47 54.7359256 47.41801392 56.78023326 48.1875 59.625 C48.7734375 61.94921875 48.7734375 61.94921875 49 64 C46.99173418 66.90082841 44.9406862 68.03954254 42 70 C42.020625 70.969375 42.04125 71.93875 42.0625 72.9375 C42.041875 73.948125 42.02125 74.95875 42 76 C40.1875 77.5625 40.1875 77.5625 38 79 C36.9935725 80.66279327 35.99414593 82.32983484 35 84 C32.24032451 87.46930634 30.22108355 89.2663492 25.875 90 C22 90 22 90 20.42578125 88.94921875 C18.38141022 86.15431151 17.39243295 83.0653494 16.3125 79.8125 C16.08755859 79.15830078 15.86261719 78.50410156 15.63085938 77.83007812 C15.07942691 76.22271116 14.53865109 74.61169517 14 73 C12.02 73.495 12.02 73.495 10 74 C10.99 72.68 11.98 71.36 13 70 C11.35 70 9.7 70 8 70 C8.495 69.54625 8.99 69.0925 9.5 68.625 C11.22609337 67.12364481 11.22609337 67.12364481 11 65 C10.34 64.67 9.68 64.34 9 64 C10.32 62.68 11.64 61.36 13 60 C11.8509288 58.7018576 11.8509288 58.7018576 9 58 C9.474375 57.5875 9.94875 57.175 10.4375 56.75 C12.16266518 54.817815 12.56584875 53.51807725 13 51 C12.34 51 11.68 51 11 51 C10.01 53.475 10.01 53.475 9 56 C5.535 56.495 5.535 56.495 2 57 C5.75 55 5.75 55 8 55 C8.93786082 49.94990405 8.93786082 49.94990405 8 45 C7.67 45.33 7.34 45.66 7 46 C4.84622436 43.37801226 3.59927826 41.35595828 3 38 C2.34 38 1.68 38 1 38 C0.34 39.32 -0.32 40.64 -1 42 C-1 41.01 -1 40.02 -1 39 C-1.66 39 -2.32 39 -3 39 C-3.66 40.32 -4.32 41.64 -5 43 C-5.495 41.515 -5.495 41.515 -6 40 C-6.495 42.475 -6.495 42.475 -7 45 C-7.33 45 -7.66 45 -8 45 C-8.33 43.35 -8.66 41.7 -9 40 C-10.98 39.34 -12.96 38.68 -15 38 C-15 41.96 -15 45.92 -15 50 C-15.66 49.67 -16.32 49.34 -17 49 C-16.95359375 48.07058594 -16.9071875 47.14117187 -16.859375 46.18359375 C-16.32038597 38.27784433 -16.32038597 38.27784433 -19.0625 31.125 C-21.17755823 27.71361576 -21.30879846 26.02976111 -20.546875 22.12109375 C-20.27617187 21.07115234 -20.27617187 21.07115234 -20 20 C-19.79890625 19.20722656 -19.5978125 18.41445312 -19.390625 17.59765625 C-18.36792395 14.09206431 -17.60968312 11.60968312 -15 9 C-13 8 -13 8 -10 7 C-9.5875 6.175 -9.175 5.35 -8.75 4.5 C-7 2 -7 2 -3.3125 1.1875 C-2.219375 1.125625 -1.12625 1.06375 0 1 C0 0.67 0 0.34 0 0 Z " fill="#5E5E5E" transform="translate(29,75)"/>
<path d="M0 0 C4.29 0.33 8.58 0.66 13 1 C13 2.65 13 4.3 13 6 C14.32 5.67 15.64 5.34 17 5 C19.72968225 8.25646303 21.14192664 11.53300623 22.625 15.5 C23.26308594 17.18609375 23.26308594 17.18609375 23.9140625 18.90625 C25.38918453 23.10875592 26.12488131 26.51946466 26.09765625 30.984375 C26.09443359 31.91894531 26.09121094 32.85351562 26.08789062 33.81640625 C26.07532227 35.26853516 26.07532227 35.26853516 26.0625 36.75 C26.05798828 37.73355469 26.05347656 38.71710938 26.04882812 39.73046875 C26.03706483 42.15370791 26.02062684 44.57682273 26 47 C25.34 47 24.68 47 24 47 C23.67 41.39 23.34 35.78 23 30 C22.896875 32.619375 22.79375 35.23875 22.6875 37.9375 C22.17007163 47.66626006 20.86821807 54.7605269 14 62 C13.505 60.02 13.505 60.02 13 58 C11.02 58.495 11.02 58.495 9 59 C9.474375 58.4225 9.94875 57.845 10.4375 57.25 C11.9484867 55.07417916 12.54036151 53.57397552 13 51 C12.34 51 11.68 51 11 51 C10.01 53.475 10.01 53.475 9 56 C5.535 56.495 5.535 56.495 2 57 C5.75 55 5.75 55 8 55 C8.93786082 49.94990405 8.93786082 49.94990405 8 45 C7.67 45.33 7.34 45.66 7 46 C4.84622436 43.37801226 3.59927826 41.35595828 3 38 C2.34 38 1.68 38 1 38 C0.34 39.32 -0.32 40.64 -1 42 C-1 41.01 -1 40.02 -1 39 C-1.66 39 -2.32 39 -3 39 C-3.66 40.32 -4.32 41.64 -5 43 C-5.495 41.515 -5.495 41.515 -6 40 C-6.495 42.475 -6.495 42.475 -7 45 C-7.33 45 -7.66 45 -8 45 C-8.33 43.35 -8.66 41.7 -9 40 C-10.98 39.34 -12.96 38.68 -15 38 C-15 41.96 -15 45.92 -15 50 C-15.66 49.67 -16.32 49.34 -17 49 C-16.95359375 48.07058594 -16.9071875 47.14117187 -16.859375 46.18359375 C-16.32038597 38.27784433 -16.32038597 38.27784433 -19.0625 31.125 C-21.17755823 27.71361576 -21.30879846 26.02976111 -20.546875 22.12109375 C-20.27617187 21.07115234 -20.27617187 21.07115234 -20 20 C-19.79890625 19.20722656 -19.5978125 18.41445312 -19.390625 17.59765625 C-18.36792395 14.09206431 -17.60968312 11.60968312 -15 9 C-13 8 -13 8 -10 7 C-9.5875 6.175 -9.175 5.35 -8.75 4.5 C-7 2 -7 2 -3.3125 1.1875 C-2.219375 1.125625 -1.12625 1.06375 0 1 C0 0.67 0 0.34 0 0 Z " fill="#6F6F6F" transform="translate(29,75)"/>
<path d="M0 0 C3.62722209 2.22419569 4.58729272 4.0140783 6.33203125 7.8515625 C6.82316406 8.9034375 7.31429687 9.9553125 7.8203125 11.0390625 C9.32754732 14.57394547 10.14424391 17.267078 10.1171875 21.08203125 C10.11396484 21.88447266 10.11074219 22.68691406 10.10742188 23.51367188 C10.09904297 24.34705078 10.09066406 25.18042969 10.08203125 26.0390625 C10.07751953 26.88404297 10.07300781 27.72902344 10.06835938 28.59960938 C10.05658528 30.68362405 10.03865015 32.76760227 10.01953125 34.8515625 C9.68953125 34.8515625 9.35953125 34.8515625 9.01953125 34.8515625 C8.68953125 29.9015625 8.35953125 24.9515625 8.01953125 19.8515625 C7.88675781 21.04394531 7.75398438 22.23632812 7.6171875 23.46484375 C7.43897142 25.03126928 7.26057669 26.59767448 7.08203125 28.1640625 C6.99501953 28.94974609 6.90800781 29.73542969 6.81835938 30.54492188 C6.73134766 31.30224609 6.64433594 32.05957031 6.5546875 32.83984375 C6.47613525 33.53634033 6.39758301 34.23283691 6.31665039 34.95043945 C6.01953125 36.8515625 6.01953125 36.8515625 5.01953125 39.8515625 C5.67953125 40.1815625 6.33953125 40.5115625 7.01953125 40.8515625 C6.35953125 40.8515625 5.69953125 40.8515625 5.01953125 40.8515625 C4.02953125 43.3265625 4.02953125 43.3265625 3.01953125 45.8515625 C-0.44546875 46.3465625 -0.44546875 46.3465625 -3.98046875 46.8515625 C-0.23046875 44.8515625 -0.23046875 44.8515625 2.01953125 44.8515625 C2.95739207 39.80146655 2.95739207 39.80146655 2.01953125 34.8515625 C1.68953125 35.1815625 1.35953125 35.5115625 1.01953125 35.8515625 C-1.13424439 33.22957476 -2.38119049 31.20752078 -2.98046875 27.8515625 C-3.64046875 27.8515625 -4.30046875 27.8515625 -4.98046875 27.8515625 C-5.64046875 29.1715625 -6.30046875 30.4915625 -6.98046875 31.8515625 C-6.98046875 30.8615625 -6.98046875 29.8715625 -6.98046875 28.8515625 C-7.64046875 28.8515625 -8.30046875 28.8515625 -8.98046875 28.8515625 C-9.64046875 30.1715625 -10.30046875 31.4915625 -10.98046875 32.8515625 C-11.47546875 31.3665625 -11.47546875 31.3665625 -11.98046875 29.8515625 C-12.47546875 32.3265625 -12.47546875 32.3265625 -12.98046875 34.8515625 C-13.31046875 34.8515625 -13.64046875 34.8515625 -13.98046875 34.8515625 C-14.10421875 34.0884375 -14.22796875 33.3253125 -14.35546875 32.5390625 C-14.86149667 29.64889114 -14.86149667 29.64889114 -16.98046875 26.8515625 C-19.59645927 20.46716273 -20.86716721 14.59715561 -18.98046875 7.8515625 C-15.03902538 -0.03132424 -8.37160766 -3.22575708 0 0 Z " fill="#5D5D5D" transform="translate(34.98046875,85.1484375)"/>
<path d="M0 0 C7.63960136 4.07445406 10.43915195 10.35355312 13.12890625 18.28125 C15.650162 28.15616836 13.94316385 37.6826214 11.12890625 47.28125 C10.46890625 47.28125 9.80890625 47.28125 9.12890625 47.28125 C8.79890625 45.96125 8.46890625 44.64125 8.12890625 43.28125 C7.46890625 43.28125 6.80890625 43.28125 6.12890625 43.28125 C6.40540232 39.96729792 6.70263059 36.65553395 7.00390625 33.34375 C7.12185547 31.92545898 7.12185547 31.92545898 7.2421875 30.47851562 C7.32597656 29.57939453 7.40976562 28.68027344 7.49609375 27.75390625 C7.60606689 26.50492554 7.60606689 26.50492554 7.71826172 25.23071289 C7.85377441 24.58739014 7.98928711 23.94406738 8.12890625 23.28125 C8.78890625 22.95125 9.44890625 22.62125 10.12890625 22.28125 C8.64410453 16.85803804 7.24158772 12.02438366 4.12890625 7.28125 C4.12890625 6.62125 4.12890625 5.96125 4.12890625 5.28125 C-1.03145205 3.03186305 -5.49230663 2.75295993 -10.87109375 4.28125 C-14.99279434 7.3506015 -16.90232715 10.24366366 -17.87109375 15.28125 C-17.76371846 18.32166604 -17.3355608 21.27735987 -16.87109375 24.28125 C-16.67947793 25.80157025 -16.49169657 27.322381 -16.30859375 28.84375 C-16.16421875 29.978125 -16.01984375 31.1125 -15.87109375 32.28125 C-16.53109375 32.28125 -17.19109375 32.28125 -17.87109375 32.28125 C-20.87017469 25.05132273 -22.53138086 17.61916233 -20.14453125 9.9453125 C-18.18593564 5.66187983 -15.89599069 2.86131214 -11.87109375 0.28125 C-7.81640741 -1.07031211 -4.09380115 -1.57256662 0 0 Z " fill="#4E4E4E" transform="translate(33.87109375,81.71875)"/>
<path d="M0 0 C0.66 0.99 1.32 1.98 2 3 C0.8553125 3.7734375 0.8553125 3.7734375 -0.3125 4.5625 C-4.25771975 8.14072257 -5.75377743 11.42235745 -6.25 16.6171875 C-6.37849501 22.41552484 -5.67303674 27.4580658 -4 33 C-4.66 33 -5.32 33 -6 33 C-6 36.96 -6 40.92 -6 45 C-6.66 44.67 -7.32 44.34 -8 44 C-7.95359375 43.07058594 -7.9071875 42.14117187 -7.859375 41.18359375 C-7.32038597 33.27784433 -7.32038597 33.27784433 -10.0625 26.125 C-12.17755823 22.71361576 -12.30879846 21.02976111 -11.546875 17.12109375 C-11.27617187 16.07115234 -11.27617187 16.07115234 -11 15 C-10.79890625 14.20722656 -10.5978125 13.41445312 -10.390625 12.59765625 C-9.36792395 9.09206431 -8.60968312 6.60968312 -6 4 C-4 3 -4 3 -1 2 C-0.67 1.34 -0.34 0.68 0 0 Z " fill="#666666" transform="translate(20,80)"/>
<path d="M0 0 C3.59059983 0.99738884 4.91172765 1.88720756 7.25 4.875 C9.76674004 9.36917864 10.1551347 12.80436381 10.1875 17.9375 C10.20167969 18.95714844 10.21585938 19.97679688 10.23046875 21.02734375 C9.99444914 24.07159667 9.28252995 26.24737643 8 29 C5.84622436 26.37801226 4.59927826 24.35595828 4 21 C3.34 21 2.68 21 2 21 C2 19.35 2 17.7 2 16 C2.33 16 2.66 16 3 16 C3.08004482 12.4780279 3.04005702 9.38018531 2 6 C4.0343459 7.41519715 4.90410393 8.54982123 5.421875 10.98046875 C5.66273952 12.98176954 5.83532741 14.9909944 6 17 C6.66 17 7.32 17 8 17 C7.55037804 15.03964825 7.09001752 13.08175691 6.625 11.125 C6.36976562 10.03445312 6.11453125 8.94390625 5.8515625 7.8203125 C5.21093785 4.89591545 5.21093785 4.89591545 3 3 C0.42938689 2.35232207 0.42938689 2.35232207 -2 2 C-1.34 1.34 -0.68 0.68 0 0 Z " fill="#B7B7B7" transform="translate(28,92)"/>
<path d="M0 0 C-0.5162015 5.93631729 -1.89354834 11.85216582 -5 17 C-7.13671875 17.7890625 -7.13671875 17.7890625 -9 18 C-10.07852306 12.71523698 -10.16753346 8.99475102 -8 4 C-3.07692308 0 -3.07692308 0 0 0 Z " fill="#767676" transform="translate(89,137)"/>
<path d="M0 0 C0.33 0 0.66 0 1 0 C1.33 2.64 1.66 5.28 2 8 C2.99 7.67 3.98 7.34 5 7 C4.22095672 19.66970387 4.22095672 19.66970387 2 25 C1.34 25 0.68 25 0 25 C-0.33 23.68 -0.66 22.36 -1 21 C-1.66 21 -2.32 21 -3 21 C-2.69467865 17.68679669 -2.37954424 14.37460045 -2.0625 11.0625 C-1.97548828 10.11697266 -1.88847656 9.17144531 -1.79882812 8.19726562 C-1.71181641 7.29814453 -1.62480469 6.39902344 -1.53515625 5.47265625 C-1.456604 4.64000244 -1.37805176 3.80734863 -1.29711914 2.94946289 C-1 1 -1 1 0 0 Z " fill="#555555" transform="translate(43,104)"/>
<path d="M0 0 C0.33 0 0.66 0 1 0 C1.33 2.97 1.66 5.94 2 9 C2.66 9 3.32 9 4 9 C4 6.36 4 3.72 4 1 C4.99 1 5.98 1 7 1 C8.99785435 5.1205746 9.17835515 8.45194365 9 13 C8.34 12.67 7.68 12.34 7 12 C6.67 14.97 6.34 17.94 6 21 C5.67 20.01 5.34 19.02 5 18 C4.34 18 3.68 18 3 18 C2.34 19.32 1.68 20.64 1 22 C1.01160156 21.16855469 1.02320312 20.33710937 1.03515625 19.48046875 C1.04869141 17.85044922 1.04869141 17.85044922 1.0625 16.1875 C1.07410156 15.10855469 1.08570312 14.02960938 1.09765625 12.91796875 C1.13624766 9.93487831 1.13624766 9.93487831 0 7 C-0.03954234 4.66700175 -0.04401732 2.33291811 0 0 Z " fill="#9E9E9E" transform="translate(23,96)"/>
<path d="M0 0 C4.37837656 3.92459523 5.71258982 8.96912898 6.2578125 14.71875 C6.37669701 20.76487649 5.53146669 26.16128323 4 32 C4.66 32.33 5.32 32.66 6 33 C5.34 33 4.68 33 4 33 C3.01 35.475 3.01 35.475 2 38 C-1.465 38.495 -1.465 38.495 -5 39 C-1.25 37 -1.25 37 1 37 C1.93786082 31.94990405 1.93786082 31.94990405 1 27 C1.4375 24.8125 1.4375 24.8125 2 23 C2.66 23 3.32 23 4 23 C3.63259093 14.91700056 2.74049239 7.63545993 0 0 Z " fill="#A7A7A7" transform="translate(36,93)"/>
<path d="M0 0 C0.33 0 0.66 0 1 0 C3.48544301 10.41033917 3.2489135 21.83825157 -1.43359375 31.5234375 C-3.65400615 35.03401472 -6.19560555 38.169924 -10 40 C-10.99 39.67 -11.98 39.34 -13 39 C-12.1646875 38.4121875 -12.1646875 38.4121875 -11.3125 37.8125 C-5.33216949 33.12521392 -2.74203937 29.31018627 -1 22 C-0.54240058 18.14660209 -0.40231795 14.31506926 -0.3125 10.4375 C-0.27833984 9.42880859 -0.24417969 8.42011719 -0.20898438 7.38085938 C-0.12736719 4.92068432 -0.05794324 2.46082691 0 0 Z " fill="#BABABA" transform="translate(51,100)"/>
<path d="M0 0 C3.06073073 1.14777402 3.81034987 2.17218528 5.5 4.9375 C6.01171875 7.515625 6.01171875 7.515625 6.1875 10.1875 C6.28611328 11.52554688 6.28611328 11.52554688 6.38671875 12.890625 C6.42410156 13.56609375 6.46148437 14.2415625 6.5 14.9375 C5.84 14.9375 5.18 14.9375 4.5 14.9375 C4.24476562 13.88949219 4.24476562 13.88949219 3.984375 12.8203125 C3.62085938 11.45519531 3.62085938 11.45519531 3.25 10.0625 C3.01796875 9.15757813 2.7859375 8.25265625 2.546875 7.3203125 C1.70085821 4.78792396 1.70085821 4.78792396 -0.609375 3.6171875 C-1.23328125 3.39289063 -1.8571875 3.16859375 -2.5 2.9375 C-2.5 5.5775 -2.5 8.2175 -2.5 10.9375 C-3.16 10.9375 -3.82 10.9375 -4.5 10.9375 C-5.83264887 3.54735626 -5.83264887 3.54735626 -4.375 0.875 C-2.5 -0.0625 -2.5 -0.0625 0 0 Z " fill="#515151" transform="translate(29.5,94.0625)"/>
<path d="M0 0 C1.02413764 3.07241293 1.04134935 4.98623094 0.9375 8.1875 C0.87786045 13.17071606 1.56364682 17.2420801 3 22 C2.34 22 1.68 22 1 22 C1 25.96 1 29.92 1 34 C0.34 33.67 -0.32 33.34 -1 33 C-0.98839844 32.03578125 -0.97679687 31.0715625 -0.96484375 30.078125 C-0.95582031 28.81484375 -0.94679688 27.5515625 -0.9375 26.25 C-0.92009766 24.37054688 -0.92009766 24.37054688 -0.90234375 22.453125 C-0.86576507 19.2065268 -0.86576507 19.2065268 -1.52734375 16.9609375 C-2.23085388 14.04224258 -1.87384844 11.35445565 -1.625 8.375 C-1.53476563 7.22773437 -1.44453125 6.08046875 -1.3515625 4.8984375 C-1 2 -1 2 0 0 Z " fill="#B2B2B2" transform="translate(13,91)"/>
<path d="M0 0 C-1.36144033 5.19822672 -3.46730171 8.09543873 -7 12 C-7.33 10.68 -7.66 9.36 -8 8 C-9.32 8.33 -10.64 8.66 -12 9 C-10.68 6.69 -9.36 4.38 -8 2 C-7.67 2.66 -7.34 3.32 -7 4 C-6.34 4 -5.68 4 -5 4 C-5 3.34 -5 2.68 -5 2 C-2 0 -2 0 0 0 Z " fill="#6D6D6D" transform="translate(50,125)"/>
<path d="M0 0 C4.12221527 8.24443054 4.10293923 13.92310824 3 23 C2.67 23 2.34 23 2 23 C1.87625 22.236875 1.7525 21.47375 1.625 20.6875 C1.11897208 17.79732864 1.11897208 17.79732864 -1 15 C-2.67626679 10.85344531 -3.11529858 9.46119431 -2 5 C-1.01 7.97 -0.02 10.94 1 14 C0.67 9.38 0.34 4.76 0 0 Z " fill="#AAAAAA" transform="translate(19,97)"/>
<path d="M0 0 C0.66 0.99 1.32 1.98 2 3 C0.8553125 3.86625 0.8553125 3.86625 -0.3125 4.75 C-2.66200917 6.71703093 -4.29323505 8.48476744 -6 11 C-6.33 10.34 -6.66 9.68 -7 9 C-7.99 9.495 -7.99 9.495 -9 10 C-8.375 7.6875 -8.375 7.6875 -7 5 C-3.9375 3.3125 -3.9375 3.3125 -1 2 C-0.67 1.34 -0.34 0.68 0 0 Z " fill="#838383" transform="translate(20,80)"/>
<path d="M0 0 C0.33 0 0.66 0 1 0 C1.05410687 1.77049689 1.09284119 3.54146849 1.125 5.3125 C1.14820313 6.29863281 1.17140625 7.28476563 1.1953125 8.30078125 C1 11 1 11 -1 14 C-1.33 10.04 -1.66 6.08 -2 2 C-1.34 2 -0.68 2 0 2 C0 1.34 0 0.68 0 0 Z " fill="#7B7B7B" transform="translate(36,107)"/>
<path d="M0 0 C0.33 0 0.66 0 1 0 C1.33 2.31 1.66 4.62 2 7 C6.455 7.99 6.455 7.99 11 9 C11 9.33 11 9.66 11 10 C6.60490434 10.43089173 4.63156793 10.46051828 1 7.8125 C-1 5 -1 5 -0.8125 2.1875 C-0.544375 1.465625 -0.27625 0.74375 0 0 Z " fill="#B6B6B6" transform="translate(21,126)"/>
<path d="M0 0 C0.66 0 1.32 0 2 0 C4.32590854 3.63423209 4.16265833 6.77088331 4 11 C2 10 2 10 0.875 7.1875 C0 4 0 4 0 0 Z " fill="#4E4E4E" transform="translate(28,98)"/>
<path d="M0 0 C0.66 0.33 1.32 0.66 2 1 C0.90716423 2.03295436 -0.19970579 3.05107835 -1.3125 4.0625 C-1.92738281 4.63097656 -2.54226562 5.19945312 -3.17578125 5.78515625 C-3.77777344 6.18605469 -4.37976562 6.58695313 -5 7 C-5.99 6.67 -6.98 6.34 -8 6 C-5.33333333 4 -2.66666667 2 0 0 Z " fill="#B5B5B5" transform="translate(46,133)"/>
<path d="M0 0 C0.66 0 1.32 0 2 0 C2.33 0.66 2.66 1.32 3 2 C3.99 2.66 4.98 3.32 6 4 C5.67 5.32 5.34 6.64 5 8 C5 7.34 5 6.68 5 6 C4.01 6.33 3.02 6.66 2 7 C1.34 4.69 0.68 2.38 0 0 Z " fill="#9E9E9E" transform="translate(48,78)"/>
<path d="M0 0 C0.33 0.66 0.66 1.32 1 2 C1.66 2 2.32 2 3 2 C2 5 2 5 -1 7 C-1.99 6.67 -2.98 6.34 -4 6 C-3.525625 5.566875 -3.05125 5.13375 -2.5625 4.6875 C-0.76313043 2.97690387 -0.76313043 2.97690387 0 0 Z " fill="#A2A2A2" transform="translate(42,127)"/>
<path d="M0 0 C0.33 0 0.66 0 1 0 C1.07347656 1.06541016 1.07347656 1.06541016 1.1484375 2.15234375 C1.22320313 3.07144531 1.29796875 3.99054688 1.375 4.9375 C1.44460937 5.85402344 1.51421875 6.77054687 1.5859375 7.71484375 C1.72257812 8.46894531 1.85921875 9.22304687 2 10 C2.66 10.33 3.32 10.66 4 11 C2.68 10.67 1.36 10.34 0 10 C-0.74926071 6.33694766 -1.2380014 3.57644848 0 0 Z " fill="#BEBEBE" transform="translate(24,120)"/>
<path d="M0 0 C0.99 1.485 0.99 1.485 2 3 C3.32 2.67 4.64 2.34 6 2 C6 2.99 6 3.98 6 5 C4.35 5 2.7 5 1 5 C0.67 3.35 0.34 1.7 0 0 Z " fill="#A5A5A5" transform="translate(28,123)"/>
<path d="M0 0 C3 1 3 1 3 1 Z " fill="#D0D0D0" transform="translate(35,134)"/>
<path d="" fill="#CFCFCF" transform="translate(0,0)"/>
<path d="" fill="#B8B8B8" transform="translate(0,0)"/>
<path d="" fill="#ECECEC" transform="translate(0,0)"/>
</svg>
